<svg version="1" xmlns="http://www.w3.org/2000/svg" width="681.333" height="681.333" viewBox="0 0 511.000000 511.000000">
  <path d="M243.5 31.6c-17.8 1.7-26.5 2.9-36.1 5-18.6 4.1-41.3 12.4-57.1 21l-8.1 4.4H47.1l-.3 15.2-.3 15.3-23 .5-23 .5v325l23 .5 23 .5.3 15.2.3 15.3h95l10.7 5.4c25.3 12.8 47.1 19.6 73.6 23.1 17.5 2.4 52.9 1.7 69.6-1.3 20.8-3.8 47.4-12.9 64-22l8.5-4.7 48.5-.5 48.5-.5.3-15.3.3-15.2H511V93h-44.9l-.3-15.3-.3-15.2-48-.5-48-.5-10-5.2c-22.6-11.6-47.6-19.6-71.7-22.7-11.9-1.6-37.1-2.7-44.3-2zm39 7.4c23.7 2.8 48.7 10.3 70.5 21.2l14.5 7.3 46 .5 46 .5.2 15 .1 15 23.1.3 23.1.2v314l-23.1.2-23.1.3-.1 15-.2 15-46 .5-46 .5-14.5 7.2c-22 11-46.6 18.4-71 21.3-12.2 1.4-39.8 1.4-52 0-23.5-2.8-51.3-11.3-72.9-22.2l-13.3-6.8H53.1l-.3-15.3-.3-15.2-22.7-.3L7 413V99l22.7-.2 22.8-.3.3-15.3.3-15.2h90.5l14.7-7.4c37.6-19 81.2-26.5 124.2-21.6z"/>
  <path d="M96.5 118.2c-.3.7-.4 18.6-.3 39.8l.3 38.5h6l.5-18.5.5-18.5h13l.3 18.8.2 18.8 3.3-.3 3.2-.3v-79h-6L117 135l-.5 17.5h-13L103 135l-.5-17.5-2.8-.3c-1.6-.2-2.9.2-3.2 1zM227.2 118.8c-1.4 1.4-2.2 6-4 22.2-1.3 11.3-3.2 27.9-4.3 36.9-1.1 9.1-1.7 17.1-1.4 17.9.3.8 1.6 1.2 3.2 1 2.7-.3 2.9-.7 4-8.3.6-4.4 1.2-8.1 1.2-8.3.1-.1 3-.2 6.5-.2h6.4l.7 6.7c.7 8.3 1.4 9.7 4.9 10.1 2.3.3 2.6 0 2.6-3 0-4.9-7.7-72-8.5-74-1.2-3.1-8.5-3.8-11.3-1zm8.2 33.6c1.4 10.9 2.3 20.3 2 20.7-1 1.6-9.4 1-10.1-.7-.5-1.3 2.7-29.9 4.4-39.4.8-4.3.7-4.7 3.7 19.4zM354.7 117.6c-.4.4-.7 18.2-.7 39.6V196h10.5c10.5 0 10.5 0 10.5-2.5 0-2.3-.3-2.4-6.7-2.7l-6.8-.3-.5-36.5-.5-36.5-2.5-.3c-1.4-.2-2.9 0-3.3.4zM58 120.5c0 2.4.3 2.5 6 2.5h6l.2 36.7.3 36.8h6l.3-35.9c.2-27.3.5-36.2 1.5-36.8.6-.4 3.3-.8 6-.8 4.3 0 4.7-.2 4.7-2.5V118H58v2.5zM132.7 118.7c-.4.3-.7 17.9-.7 39V196h22v-2.5c0-2.3-.3-2.4-7.2-2.7l-7.3-.3v-31l6.5-.5c6.1-.5 6.5-.6 6.5-3s-.3-2.5-6.8-2.8l-6.8-.3.3-14.7.3-14.7 7.3-.3c6.9-.3 7.2-.4 7.2-2.7 0-2.5 0-2.5-10.3-2.5-5.7 0-10.7.3-11 .7zM181 120.5c0 2.2.4 2.4 5.8 2.7l5.7.3.5 36.5.5 36.5h6l.5-36.5.5-36.5 5.8-.3c5.3-.3 5.7-.5 5.7-2.7V118h-31v2.5zM256.9 119.3c-3 2.3-3.9 5.6-3.9 13.7 0 10.1 1.2 13 8.7 21.1 10.8 11.5 11.3 12.6 11.3 24.6V189l-2.7 1.1c-1.8.7-4.1.8-6.3.2-3.2-.7-3.5-1.1-4-5.3-.5-4.2-.7-4.5-3.5-4.5-3 0-3 0-3 5.9.1 8.2 1.9 9.6 13.2 9.6 7.6 0 8.6-.2 10.8-2.5 2.4-2.3 2.5-3 2.5-14.2 0-14.6-1.2-17.4-11-27.8-8.1-8.6-9-10.4-9-18.8 0-7.5.6-8.6 5.2-9.3 5.3-.9 7.6.8 8 5.9.3 3.9.5 4.2 3.3 4.2 2.9 0 3-.2 3.3-5.2.3-4.5-.1-5.6-2.2-7.8-2.3-2.3-3.3-2.5-10.8-2.5-4.9.1-8.9.6-9.9 1.3zM286.3 119.6c-.9 2.4.7 3.3 6.7 3.6l5.5.3.3 36c.1 20 .6 36.3 1.1 36.8.5.5 2.1.7 3.5.3l2.6-.6.2-36.3.3-36.2 5.8-.3c5.3-.3 5.7-.5 5.7-2.7V118h-15.5c-13.2 0-15.7.2-16.2 1.6zM325 157v39.1l10.8-.3c9.9-.3 10.7-.4 10.7-2.3 0-1.8-.8-2.1-7-2.5l-7-.5-.3-15.8-.3-15.7h13.2l-.3-2.8c-.3-2.6-.6-2.7-6.5-3l-6.3-.3V123h7c6.8 0 7-.1 7-2.5V118h-21v39zM386.5 120.5l-2.5 2.4v68.2l2.5 2.4c2.2 2.3 3.2 2.5 11 2.5s8.8-.2 11-2.5l2.5-2.4v-68.2l-2.5-2.4c-2.2-2.3-3.2-2.5-11-2.5s-8.8.2-11 2.5zm15.6 3.5c1.8 1 1.9 2.5 1.9 33.1V189l-2.7 1.1c-1.8.7-4.1.8-6.3.2l-3.5-.8-.3-32c-.2-29.2-.1-32.1 1.5-33.3 2-1.5 6.7-1.6 9.4-.2zM422.5 120.5l-2.5 2.4V156c0 41.7-.6 40 14.1 40 6.5 0 8.2-.3 9.9-2 2.8-2.8 3.1-5 2.8-19.5l-.3-13-7.7-.3c-6.9-.3-7.7-.1-8.3 1.8-1 3.1.2 4 5.1 4h4.5l-.3 11.2-.3 11.3-3.5.8c-2.2.6-4.5.5-6.2-.2L427 189v-31.9c0-30.6.1-32.1 1.9-33.1 2.7-1.4 8.4-1.3 9.9.2.7.7 1.2 2.9 1.2 4.9 0 2.8.5 3.9 1.9 4.4 3.7 1.1 5.1-.4 5.1-5.7 0-3.9-.5-5.4-2.5-7.3-2.2-2.3-3.2-2.5-11-2.5s-8.8.2-11 2.5zM246.6 222.1c-24.9 2.8-46.5 13.4-64.9 31.6-33.5 33.2-41.8 84.1-20.7 126.3 15.2 30.1 43.4 51.7 76.5 58.6 12 2.5 31.9 2.5 43.5 0 28.2-5.9 54-23.5 69.7-47.4 18.8-28.6 23.2-62.7 12.2-95.7-11.3-33.9-41.2-61.7-75.7-70.4-14.7-3.8-26.7-4.7-40.6-3zm29.8 9c9.1 1.3 20.1 5.1 30.3 10.4 36.4 19.1 57.9 59.6 53.4 100.1-6.3 55.6-55.6 95.9-110.6 90.3-15.3-1.5-27.1-5.2-39.4-12-30-16.8-48.9-45.9-51.9-79.7-4.9-55.8 35.8-104.9 91.3-110.1 8.5-.8 15.8-.6 26.9 1z"/>
  <path d="M249.7 239.1c-27.9 2.9-52.3 17.8-67.8 41.3-10.4 15.8-15 31.5-15 51.5.1 30.9 15.1 58.6 41.4 76.2 4.9 3.2 9.2 5.9 9.7 5.9 1.3 0 1.8-4.5 2.5-20.5.3-7.7.8-18.7 1.1-24.6l.7-10.5-4.1-1.2c-5.9-1.8-14-9.5-17.3-16.6-3.9-8.2-5.2-15.4-4.7-26 .3-7.6.9-10.2 3.4-15.6 4-8.3 9.7-14.8 16.5-18.5 10.9-6 23.8-3.1 33.1 7.5 7.5 8.5 10.8 17.4 10.8 29.5 0 11.9-3.9 24.3-9.7 31.1-3 3.4-10.2 8.2-13.4 8.9-3.5.8-3.4-1.1-1.4 34.5.8 14 1.5 26.3 1.5 27.2.1 5.6 43.1 5.2 50.3-.5 1.2-.9 1.7-5.8 2.6-23.2.6-12.1 1.1-24.3 1.1-27v-5l-4.9-2.2c-6.6-3.1-12.9-9.5-13.7-14.1-1-5.1.3-29.8 2.6-50.2 1.1-9.6 2-18.1 2-18.8 0-.7 1.3-1.2 3-1.2h3v62h6v-62h6v62h6v-62h6v62h6v-62.1l2.3.3c2.1.3 2.3 1.1 3.8 14.3 2.5 21.1 4.3 48.6 3.5 53.9-1.1 7-9.2 15.2-17.1 17.2-2.7.7-2.7.8-2.1 6.8.3 3.3.8 12.6 1.1 20.6.3 8 .8 16 1.1 17.8l.5 3.3 6-4.3c36.7-25.7 49.8-74.2 30.9-114.5-16.9-36.1-54.2-57.3-93.3-53.2z"/>
  <path d="M206.2 306.2c-7.5 12.3-4.8 30.6 6 40.3 7.4 6.6 9.1 5.9 3.8-1.7-6.7-9.6-9.7-24.8-7-36.3 1.2-5.3-.2-6.5-2.8-2.3z"/>
</svg>
